<?xml version="1.0" encoding="UTF-8" standalone="no"?>
<!-- Created with Inkscape (http://www.inkscape.org/) -->

<svg
   width="512"
   height="512"
   viewBox="0 0 512 512"
   version="1.1"
   id="svg1"
   xml:space="preserve"
   xmlns="http://www.w3.org/2000/svg"
   xmlns:svg="http://www.w3.org/2000/svg"><defs
     id="defs1" /><g
     id="layer2"
     style="display:inline"><rect
       style="display:inline;fill:#000000;fill-opacity:1;stroke:none"
       id="rect7"
       width="512"
       height="512"
       x="0"
       y="0" /></g><g
     id="layer1"
     transform="matrix(1.2148902,0,0,1.2148902,-45.406145,-50.248921)"><path
       style="fill:#ffffff;fill-opacity:1;stroke:none"
       d="M 92.106336,124.375 C 80.242508,112.48125 70.265825,102.21855 69.93593,101.569 c -1.042148,-2.051944 -0.710829,-5.958301 0.68414,-8.066242 2.266009,-3.424172 7.414859,-4.949734 10.985609,-3.254947 0.866561,0.411296 12.447027,11.621119 25.734361,24.910719 18.60877,18.61193 24.00746,24.2828 23.5,24.68474 C 130.19697,140.35263 114.79879,146 114.05303,146 c -0.20686,0 -10.08287,-9.73125 -21.946694,-21.625 z"
       id="path7" /><path
       id="path3"
       style="fill:#ffffff;fill-opacity:1;stroke:none"
       d="m 191.65976,202.25 -5.36329,20.87891 c 0.61313,-0.20438 94.53264,94.25187 95.44141,95.98632 0.34804,0.66425 0.88248,3.21696 1.1875,5.67188 0.87726,7.06063 1.54312,8.40356 5.43359,10.94922 2.8959,1.89488 32.9688,21.3837 45.02344,28.61328 2.21103,1.32603 9.86342,6.61505 8.67383,-0.0703 -0.24957,-1.40253 -33.82381,-53.08307 -35.25977,-53.85157 -0.5063,-0.27097 -3.32209,-1.03435 -6.25585,-1.69726 l -5.33399,-1.20508 -54.91211,-54.88867 C 187.86068,200.22823 191.39181,203.68226 191.65976,202.25 Z" /><path
       id="path10"
       style="fill:#ffffff;fill-opacity:1;stroke:none"
       d="m 150.13046,145.03516 c -10.86424,-0.23964 -20.94685,4.39743 -31.25949,7.13476 -9.8305,3.2041 -19.939548,5.60963 -29.618872,9.24183 -11.949002,5.19391 -20.887264,17.43918 -21.068901,30.59019 4.70753,-1.94204 8.620484,-5.62952 13.437549,-7.50909 20.882674,-9.82916 47.094304,-8.52077 65.992844,5.17184 13.66954,9.39472 23.24363,24.07825 27.09342,40.145 2.23501,1.2827 2.73979,-6.81989 4.12683,-9.14663 2.53096,-5.90815 3.55025,-12.34434 5.31331,-18.52459 2.09442,-6.83973 2.60365,-14.11364 1.84096,-21.20916 -1.75791,-9.4606 -9.24111,-16.27951 -15.06164,-23.44237 -4.7947,-5.64883 -10.41768,-11.72042 -18.29072,-12.36081 -0.83224,-0.0828 -1.66958,-0.0978 -2.50529,-0.091 z" /><path
       style="fill:#ffffff;fill-opacity:1;stroke:none"
       d="m 76.928007,415.06129 c -6.924545,-2.26361 -11.858859,-8.6697 -12.364925,-16.05305 -0.319465,-4.66089 0.544337,-7.97773 3.221496,-12.36998 1.043166,-1.71146 9.366829,-12.76638 18.497028,-24.56649 9.130199,-11.80011 17.173944,-22.29998 17.875004,-23.33303 1.98532,-2.92555 1.70874,-4.70576 -2.6783,-17.23874 -2.16587,-6.1875 -3.772025,-11.42922 -3.569232,-11.64827 0.202794,-0.21906 1.809492,-0.16451 3.570442,0.12122 4.66647,0.75716 14.66151,0.64201 19.64064,-0.22628 16.04004,-2.79715 31.06556,-12.03074 40.94208,-25.16001 2.00111,-2.66016 4.42152,-6.36394 5.37869,-8.2306 1.28734,-2.51056 1.95998,-3.33825 2.58426,-3.17994 0.46417,0.11771 9.12667,6.58789 19.25,14.37817 20.54915,15.81335 26.3028,21.06581 29.243,26.69571 2.48386,4.7561 2.86607,6.48587 6.62879,30 1.80422,11.275 4.43095,27.5875 5.83717,36.25 2.82311,17.39069 2.88959,19.60144 0.73115,24.31608 -1.6301,3.56062 -5.12719,7.18948 -8.64528,8.97104 -2.59532,1.31427 -3.37132,1.46213 -7.63878,1.45548 -4.21277,-0.007 -5.04892,-0.16406 -7.39295,-1.39252 -3.56174,-1.86664 -6.1414,-4.28654 -7.7811,-7.2992 -1.37569,-2.52759 -1.81613,-4.3894 -12.51703,-52.91104 -3.75922,-17.0456 -4.65658,-19.91021 -6.88526,-21.97962 -0.64551,-0.59938 -9.27366,-6.12801 -19.17366,-12.28585 -9.9,-6.15784 -18.49602,-11.50892 -19.10226,-11.89129 -0.60624,-0.38238 -1.2339,-0.56359 -1.39478,-0.4027 -0.16089,0.16089 1.1119,5.77737 2.82842,12.48107 2.95077,11.52395 3.1203,12.50208 3.10918,17.93855 -0.0126,6.18161 -0.83884,9.33905 -3.59794,13.75 -1.23355,1.97208 -10.7314,13.57998 -34.36535,42 -16.876631,20.2943 -18.677816,21.78157 -26.727266,22.06914 -2.3375,0.0835 -4.813957,-0.0325 -5.503237,-0.25785 z"
       id="path1" /><ellipse
       style="fill:#ffffff;stroke:none"
       id="path9"
       cx="109.81359"
       cy="244.58575"
       rx="56.309315"
       ry="56.79686" /><ellipse
       style="fill:#ffffff;stroke:none"
       id="path8"
       cx="205.80402"
       cy="127.93946"
       rx="36.067421"
       ry="36.455322" /></g><g
     id="layer3"><path
       style="fill:#ffffff;fill-opacity:1;stroke:none;stroke-width:1.21489"
       d="m 402.96147,97.967683 c 0,0 -0.18832,19.055367 0,27.942477 h 89.88135 v 41.30626 h -89.88135 v 27.94248 l -56.16683,-48.73191 z"
       id="path5" /></g></svg>
