<?xml version="1.0" encoding="UTF-8" standalone="no"?>
<!-- Created with Inkscape (http://www.inkscape.org/) -->

<svg
   width="512"
   height="512"
   viewBox="0 0 512 512"
   version="1.1"
   id="svg1"
   xml:space="preserve"
   sodipodi:docname="tail-attack.svg"
   inkscape:version="1.4 (86a8ad7, 2024-10-11)"
   xmlns:inkscape="http://www.inkscape.org/namespaces/inkscape"
   xmlns:sodipodi="http://sodipodi.sourceforge.net/DTD/sodipodi-0.dtd"
   xmlns="http://www.w3.org/2000/svg"
   xmlns:svg="http://www.w3.org/2000/svg"><sodipodi:namedview
     id="namedview1"
     pagecolor="#505050"
     bordercolor="#ffffff"
     borderopacity="1"
     inkscape:showpageshadow="0"
     inkscape:pageopacity="0"
     inkscape:pagecheckerboard="1"
     inkscape:deskcolor="#505050"
     inkscape:document-units="px"
     showgrid="false"
     inkscape:zoom="0.55726091"
     inkscape:cx="179.44916"
     inkscape:cy="185.72988"
     inkscape:window-width="1920"
     inkscape:window-height="1009"
     inkscape:window-x="1912"
     inkscape:window-y="-8"
     inkscape:window-maximized="1"
     inkscape:current-layer="svg1"><inkscape:grid
       id="grid7"
       units="px"
       originx="0"
       originy="0"
       spacingx="1"
       spacingy="1"
       empcolor="#0099e5"
       empopacity="0.30196078"
       color="#0099e5"
       opacity="0.14901961"
       empspacing="5"
       enabled="true"
       visible="false" /></sodipodi:namedview><defs
     id="defs1" /><g
     inkscape:groupmode="layer"
     id="layer2"
     inkscape:label="Background"
     style="display:inline"><rect
       style="display:inline;fill:#000000;fill-opacity:1;stroke:none"
       id="rect7"
       width="512"
       height="512"
       x="0"
       y="0"
       inkscape:label="background" /></g><g
     inkscape:label="tail"
     inkscape:groupmode="layer"
     id="layer1"
     transform="matrix(1.2352995,0,0,1.6812422,-28.552547,-167.87851)"
     style="stroke:none;fill:#ffffff;fill-opacity:1"><path
       style="fill:#ffffff;stroke:none;fill-opacity:1"
       d="m 42.313408,121.20348 c 0.249919,22.20716 -0.519143,44.5781 0.422992,66.67269 10.313181,12.8625 19.394964,22.488 31.91384,33.1867 54.25992,42.97734 121.35799,63.3372 183.73208,91.10437 -3.01952,6.63493 -18.64918,16.96139 -20.35553,20.5122 35.60109,6.48848 71.80159,9.39804 107.98357,9.77798 7.08413,0.23822 19.02941,0.23096 19.02941,0.23096 0,0 -4.85319,-7.18145 -10.18827,-12.72172 -26.28828,-28.21755 -72.28071,-74.69706 -77.94899,-77.43877 -3.54884,0.9268 -2.58906,25.26773 -9.16306,24.52888 C 230.05703,260.08087 190.99034,245.66506 155.573,224.00584 85.269303,183.27787 69.930938,155.3992 42.313408,121.20348 Z"
       id="path11"
       inkscape:label="tail"
       sodipodi:nodetypes="cccccccccccc" /></g><g
     inkscape:groupmode="layer"
     id="layer3"
     inkscape:label="actionLines"
     transform="matrix(1.0167993,0,0,1.3838635,17.616389,-98.340865)"
     style="stroke:none;fill:#ffffff;fill-opacity:1"><path
       style="fill:#ffffff;stroke:none;stroke-width:1.44112;fill-opacity:1"
       d="m 375.02134,33.818099 c 1.5916,4.265614 5.37513,6.782989 8.13439,9.599507 5.62055,5.737154 11.05993,11.780615 16.26879,18.19521 14.13161,17.402689 26.3251,38.091517 36.38862,60.080614 33.89773,74.06765 41.10227,164.69994 22.72814,247.71157 -4.03148,18.21362 -9.92862,35.8825 -16.56811,52.58681 -3.02994,7.62303 -8.59147,15.79374 -10.01107,24.21762 6.50099,-3.89174 11.85092,-14.01003 16.16167,-21.4499 11.6787,-20.15614 20.58817,-42.62542 27.5607,-66.42544 C 502.69926,266.12177 485.48118,154.3962 433.9957,84.329121 422.45279,68.620267 409.19163,55.25772 394.84893,44.675444 388.82651,40.231988 381.98149,34.591874 375.02134,33.818099"
       id="path10"
       inkscape:label="line2"
       transform="matrix(0.98347825,0,0,0.72261462,-17.325335,71.062547)" /><path
       style="fill:#ffffff;stroke:none;stroke-width:1.44112;fill-opacity:1"
       d="m 347.05936,79.485597 -0.5084,0.691932 c 2.96556,7.900157 13.19493,14.297704 18.30239,19.930401 10.67952,11.77784 20.31873,25.82857 28.39308,40.95958 21.74743,40.75392 32.72305,90.39073 33.62423,140.46216 0.32802,18.22562 -3.27792,35.94023 -3.55135,53.97066 4.65096,-1.94782 6.7294,-14.33486 8.13439,-20.06601 5.06289,-20.65221 9.15929,-44.54935 7.26275,-66.42544 -1.54347,-17.80365 -2.28947,-34.52823 -6.25892,-51.89489 -8.78016,-38.41386 -27.43676,-71.62478 -51.3354,-94.89183 -10.04821,-9.782693 -21.83204,-19.291513 -34.06277,-22.736563 z"
       id="path12"
       inkscape:label="line1"
       transform="matrix(0.98347825,0,0,0.72261462,-17.325335,71.062547)" /></g></svg>
